<?xml version="1.0" standalone="no"?>
<!DOCTYPE svg PUBLIC "-//W3C//DTD SVG 20010904//EN"
 "http://www.w3.org/TR/2001/REC-SVG-20010904/DTD/svg10.dtd">
<svg version="1.0" xmlns="http://www.w3.org/2000/svg"
 width="200.000000pt" height="200.000000pt" viewBox="0 0 200.000000 200.000000"
 preserveAspectRatio="xMidYMid meet">

<g transform="translate(0.000000,200.000000) scale(0.100000,-0.100000)"
fill="#000000" stroke="none">
<path d="M0 1000 l0 -1000 1000 0 1000 0 0 1000 0 1000 -1000 0 -1000 0 0
-1000z m1156 889 c181 -32 332 -109 468 -238 183 -176 276 -394 276 -651 0
-257 -93 -475 -276 -651 -177 -168 -379 -249 -624 -249 -245 0 -447 81 -624
249 -183 176 -276 394 -276 651 0 257 93 475 276 651 132 126 269 198 444 234
80 16 256 19 336 4z"/>
<path d="M918 1689 c-226 -26 -417 -157 -537 -370 -68 -122 -93 -330 -57 -483
57 -244 269 -455 512 -512 88 -20 240 -20 328 0 243 57 455 269 512 512 20 88
20 240 0 328 -45 192 -188 369 -374 462 -106 53 -256 78 -384 63z"/>
</g>
</svg>
