<svg version="1.0" xmlns="http://www.w3.org/2000/svg"
 width="338pt" height="266pt" viewBox="0 0 1437.000000 864.000000" fill="none"
 preserveAspectRatio="xMidYMid meet">
<g transform="translate(0.000000,864.000000) scale(0.100000,-0.100000)"
fill="#000000" stroke="none">
<path d="M8490 7342 l0 -222 -370 0 c-203 0 -370 -4 -370 -8 0 -5 -65 -381
-145 -838 -80 -456 -145 -832 -145 -836 0 -5 471 -8 1046 -8 l1046 0 -6 33
c-35 194 -286 1641 -286 1648 0 5 -147 9 -370 9 l-370 0 0 200 0 200 68 0 c99
0 340 -18 477 -36 1063 -136 2040 -659 2756 -1474 526 -599 892 -1369 1023
-2150 46 -275 57 -415 63 -812 l6 -378 -176 0 c-175 0 -177 0 -182 -22 -6 -31
-275 -1573 -275 -1581 0 -4 290 -7 645 -7 355 0 645 3 645 7 0 8 -269 1551
-275 1581 -5 22 -7 22 -175 22 l-170 0 0 268 c0 530 -38 871 -141 1276 -271
1060 -926 1985 -1834 2591 -209 139 -342 216 -550 316 -552 266 -1140 411
-1763 435 l-172 7 0 -221z m0 -507 c0 -211 2 -245 15 -245 13 0 15 34 15 245
l0 245 353 0 354 0 47 -272 c26 -150 89 -511 140 -803 l93 -530 -1000 -3
c-550 -1 -1001 -1 -1002 0 -2 2 60 359 136 793 76 435 139 796 139 803 0 9 78
12 355 12 l355 0 0 -245z"/>
<path d="M3023 7196 c-209 -40 -377 -129 -524 -275 -435 -437 -360 -1162 155
-1502 437 -288 1039 -173 1335 256 317 459 193 1081 -277 1383 -76 49 -187 96
-290 123 -100 27 -299 34 -399 15z m402 -53 c279 -79 495 -260 615 -516 62
-133 84 -237 84 -397 -1 -202 -42 -342 -151 -509 -326 -500 -1027 -571 -1448
-147 -124 125 -207 275 -252 454 -26 101 -23 331 6 437 26 100 87 228 148 314
129 179 333 318 540 365 37 9 77 18 88 20 51 12 302 -2 370 -21z"/>
<path d="M2160 3905 l0 -435 -175 0 -175 0 0 -800 0 -799 122 -3 123 -3 45
-400 45 -400 67 -3 67 -3 5 33 c7 42 76 652 76 673 0 13 88 15 830 15 721 0
830 -2 830 -15 0 -19 69 -631 76 -672 l5 -33 67 0 67 0 45 403 45 402 123 3
122 3 0 799 0 800 -175 0 -175 0 0 435 0 435 -1030 0 -1030 0 0 -435z m2018
-452 l-3 -848 -985 0 -985 0 -3 848 -2 847 990 0 990 0 -2 -847z m-2018 -438
l0 -415 -75 0 -75 0 0 -195 0 -195 1180 0 1180 0 0 195 0 195 -75 0 -75 0 0
415 0 415 155 0 155 0 0 -760 0 -760 -1340 0 -1340 0 0 760 0 760 155 0 155 0
0 -415z m2170 -610 l0 -155 -1140 0 -1140 0 0 155 0 155 1140 0 1140 0 0 -155z"/>
<path d="M5200 3905 l0 -435 -175 0 -175 0 0 -800 0 -800 119 0 119 0 6 -37
c8 -48 86 -740 86 -759 0 -11 16 -14 70 -14 39 0 70 4 70 8 0 12 68 616 75
670 l6 42 827 -2 827 -3 40 -357 40 -358 67 0 67 0 5 33 c7 41 86 742 86 762
0 12 20 15 120 15 l120 0 0 800 0 800 -175 0 -175 0 0 435 0 435 -1025 0
-1025 0 0 -435z m2017 -227 c-4 -343 -7 -725 -7 -850 l0 -228 -985 0 -985 0 0
850 0 850 992 0 991 0 -6 -622z m-2017 -663 l0 -415 -75 0 -75 0 0 -195 0
-195 1178 2 1177 3 3 193 2 192 -80 0 -80 0 0 415 0 415 160 0 160 0 0 -760 0
-760 -1340 0 -1340 0 0 760 0 760 155 0 155 0 0 -415z m2170 -610 l0 -155
-1140 0 -1140 0 0 155 0 155 1140 0 1140 0 0 -155z"/>
<path d="M9740 3885 l0 -435 -175 0 -175 0 0 -800 0 -800 120 0 c66 0 120 -3
120 -7 0 -17 81 -739 86 -760 4 -21 10 -23 74 -23 49 0 70 4 70 13 0 21 70
641 75 665 l5 22 824 0 824 0 6 -37 c3 -21 19 -159 36 -308 17 -148 33 -289
36 -312 l6 -43 69 0 68 0 6 43 c3 23 21 182 40 352 19 171 37 329 40 353 l6
42 120 0 119 0 0 800 0 800 -175 0 -175 0 0 435 0 435 -1025 0 -1025 0 0 -435z
m2010 -455 l0 -850 -985 0 -985 0 0 228 c0 125 -3 507 -7 850 l-6 622 991 0
992 0 0 -850z m-2010 -435 l0 -415 -80 0 -80 0 2 -192 3 -193 1178 -3 1177 -2
0 195 0 195 -75 0 -75 0 0 415 0 415 155 0 155 0 0 -760 0 -760 -1340 0 -1340
0 0 760 0 760 160 0 160 0 0 -415z m2170 -610 l0 -155 -1145 0 -1145 0 0 155
0 155 1145 0 1145 0 0 -155z"/>
<path d="M8258 3192 c-60 -1 -108 -4 -108 -7 0 -6 79 -457 86 -487 l5 -28
-193 -2 -194 -3 141 -802 140 -803 370 0 370 0 140 803 140 802 -193 3 -193 2
5 28 c10 44 86 485 86 494 0 8 -317 8 -602 0z m520 -259 c-20 -120 -40 -233
-43 -250 l-6 -33 -224 0 -223 0 -6 28 c-3 15 -21 119 -41 232 -19 113 -37 213
-39 223 -4 16 16 17 308 17 l312 0 -38 -217z"/>
</g>
</svg>
